# xmcd
#
# Track frame offsets:
#	150
#	25719
#	31410
#	52113
#	76492
#	95582
#	112464
#	131938
#	150553
#	179766
#	199701
#
# Disc length: 2971 seconds
#
# Revision: 3
# Processed by: cddbd v1.5.2PL0 Copyright (c) Steve Scherf et al.
# Submitted via: EZCDAudioConverter 8.0.2.1
#
DISCID=9e0b990b
DTITLE=Mai Quốc Huy - Sến 1. Những Tình khúc Bất Hủ
DYEAR=2011
DGENRE=Miscellaneous
TTITLE0=Túy ca
TTITLE1=Lời giới thiệu
TTITLE2=Vòng nhẫn cưới
TTITLE3=LK Yêu một minh, Giọt lệ đài trang
TTITLE4=Người đi ngoài phố
TTITLE5=Xót xa
TTITLE6=Tình yêu trả lại trăng sao
TTITLE7=Hương tình cũ
TTITLE8=Hàn Mặc Tử
TTITLE9=Con đường mang tên em
TTITLE10=Khóc thầm
EXTD=
EXTT0=
EXTT1=
EXTT2=
EXTT3=
EXTT4=
EXTT5=
EXTT6=
EXTT7=
EXTT8=
EXTT9=
EXTT10=
PLAYORDER=
